<svg width="192" height="97" viewBox="0 0 192 97" fill="none" xmlns="http://www.w3.org/2000/svg">
<g clip-path="url(#clip0_948_774)">
<path d="M37.702 48.237C37.702 48.237 24.846 38.9654 12.7827 32.585C-1.90015 24.8192 2.82178 18.9058 5.29824 15.4966C7.95732 26.0749 27.7016 36.5212 41.1091 46.2408L46.8615 50.7373L52.6138 55.2337C58.7144 59.9556 64.0117 66.2195 65.5167 72.5014C66.9863 78.6362 63.9305 79.3258 61.2083 79.3258C63.333 71.0195 53.51 61.5411 49.3394 57.8531L37.702 48.237Z" fill="url(#paint0_linear_948_774)"/>
<path d="M73.0007 65.8259C77.601 73.9312 72.4408 78.9123 67.9311 78.9123C71.0623 67.1954 57.9355 56.2331 54.4143 53.5765L42.7357 45.0794C33.3264 38.4619 30.8447 37.2034 21.9867 30.3792C11.8002 22.5314 4.27092 13.5939 6.20163 6.99587C7.62434 2.13397 11.2682 -0.483414 18.1961 0.24036C15.163 5.89292 26.2262 26.2617 48.0436 41.4259L59.1591 49.9339C60.038 50.7873 68.3394 57.6135 73.0007 65.8259Z" fill="url(#paint1_linear_948_774)"/>
<path d="M71.7416 31.723C74.8222 18.0873 63.9999 18.2941 62.4489 22.7058C69.9284 46.1087 6.66494 60.0488 1.53489 80.7542C-2.58984 97.4014 12.8899 98.0447 17.7932 96.0884C3.45797 69.6152 67.7814 49.2515 71.7416 31.723Z" fill="url(#paint2_linear_948_774)"/>
<path d="M49.4301 32.3845C52.5197 32.3845 55.0244 29.8799 55.0244 26.7903C55.0244 23.7007 52.5197 21.196 49.4301 21.196C46.3405 21.196 43.8359 23.7007 43.8359 26.7903C43.8359 29.8799 46.3405 32.3845 49.4301 32.3845Z" fill="url(#paint3_linear_948_774)"/>
<mask id="mask0_948_774" style="mask-type:alpha" maskUnits="userSpaceOnUse" x="0" y="0" width="75" height="97">
<path d="M62.6016 22.2304C62.5963 22.2213 62.5929 22.2097 62.5915 22.1955C62.5949 22.2071 62.5982 22.2188 62.6016 22.2304C62.8922 22.7263 68.957 15.729 72.0703 25.9524C78.2738 46.3222 2.86452 67.8638 17.2827 96.3427C12.3795 98.2991 -5.34213 95.4972 2.86457 77.9216C11.8213 58.7398 69.2543 45.3361 62.6016 22.2304Z" fill="url(#paint4_linear_948_774)"/>
<path d="M62.5915 22.1955C62.6692 22.9882 68.8999 15.5418 72.0703 25.9524C78.2738 46.3222 2.86452 67.8638 17.2827 96.3428C12.3795 98.2991 -5.34213 95.4972 2.86457 77.9216C11.8258 58.7302 69.3127 45.3227 62.5915 22.1955Z" stroke="#001948" stroke-opacity="0.13" stroke-width="0.0642054"/>
<path d="M72.6265 65.9531C76.552 73.4792 74.3857 76.8982 68.0094 79.1043C71.0078 67.3855 57.6337 55.4404 54.3594 53.786L59.1158 50.1326C60.2313 50.3074 68.7016 58.4261 72.6265 65.9531Z" fill="url(#paint5_linear_948_774)"/>
<path d="M18.5487 27.6907C6.5721 17.9704 -2.85511 1.32772 18.0317 0.186279C15.8603 3.97761 20.3797 12.545 26.0634 20.4379C32.5142 29.396 43.0889 38.0307 47.9143 41.305L42.7788 45.0964C33.7143 38.4098 27.0465 34.5875 18.5487 27.6907Z" fill="url(#paint6_linear_948_774)"/>
<path d="M15.819 34.3123C1.63514 25.7684 0.0677771 23.6621 5.23775 15.3171C7.23681 26.5917 37.0505 42.6188 41.0831 46.2337L38.0901 48.8532C27.8191 40.719 24.5736 39.5857 15.819 34.3123Z" fill="url(#paint7_linear_948_774)"/>
<path d="M65.1877 70.9077C67.8638 79.4952 63.4327 79.1537 61.0767 79.1537C63.2544 70.4423 52.4334 60.604 49.2969 57.7777L52.46 55.0613C57.9402 59.1284 63.7056 66.1514 65.1877 70.9077Z" fill="url(#paint8_linear_948_774)"/>
<path d="M49.438 32.3845C52.5276 32.3845 55.0322 29.8799 55.0322 26.7903C55.0322 23.7007 52.5276 21.196 49.438 21.196C46.3484 21.196 43.8438 23.7007 43.8438 26.7903C43.8438 29.8799 46.3484 32.3845 49.438 32.3845Z" fill="url(#paint9_linear_948_774)"/>
</mask>
<g mask="url(#mask0_948_774)">
<path d="M41.4418 28.3514C41.4418 28.3514 37.2747 26.4423 25.7248 28.8935C21.7134 30.0917 7.04499 36.7513 -2.63007 29.9586C-10.3701 24.5244 -12.8314 15.9187 -12.8438 12.2202" stroke="#001948" stroke-opacity="0.15" stroke-width="0.0642054"/>
<path d="M54.9429 24.1254C50.1727 25.2835 45.6484 24.4011 43.9825 23.8152L43.5 30.2604C47.5785 30.9842 55.584 31.3083 55.5289 29.0197C55.4737 26.7311 55.1153 24.8032 54.9429 24.1254Z" fill="#F5F5F5" fill-opacity="0.09"/>
<path d="M43.5312 30.2341L44.0085 23.8594C45.7064 24.4456 50.1879 25.3038 54.9167 24.1642C55.0912 24.866 55.4396 26.7683 55.4939 29.0206C55.5005 29.296 55.3864 29.5328 55.1702 29.7365C54.9532 29.9409 54.6338 30.1113 54.2327 30.2506C53.4306 30.5293 52.3113 30.6806 51.0602 30.7378C48.5703 30.8517 45.5681 30.593 43.5312 30.2341Z" stroke="#001948" stroke-opacity="0.15" stroke-width="0.0642054"/>
<path d="M-1.37377 78.6303C6.09112 73.9985 25.9676 77.4798 33.2286 79.6531C10.7085 77.6987 1.99531 85.2216 17.1562 88.4306C26.8182 90.1102 31.9918 94.0422 -1.37377 96.1956C4.95779 94.516 18.7126 93.6846 6.06146 90.1905C-8.80902 86.0839 -7.53923 82.4557 -1.37377 78.6303Z" fill="#F5F5F5" fill-opacity="0.07" stroke="#001948" stroke-opacity="0.15" stroke-width="0.0642054"/>
<path d="M73.1884 74.8858C72.8269 71.621 82.4308 56.8121 73.1891 57.2479C67.6237 60.2327 57.9863 83.2909 45.7031 58.3025" stroke="#001948" stroke-opacity="0.15" stroke-width="0.0642054"/>
<path d="M40.6743 31.984C44.3618 20.0241 6.15295 28.9264 -1.15583 23.4884L-8.22049 18.031L-15.0234 12.0278C3.74028 21.8608 24.5973 11.2172 42.6734 26.6762C59.9654 45.8637 4.56621 51.3211 40.6743 60.3258C69.561 67.5299 56.1154 24.4014 62.4917 26.6762L100.889 45.8637C36.5222 75.3334 12.999 71.2403 14.3073 60.3258C15.6156 49.411 40.6743 37.2919 40.6743 31.984Z" fill="#F5F5F5" fill-opacity="0.07"/>
<path d="M39.6213 34.2982C40.3083 33.4384 40.7057 32.6628 40.7076 31.9889C41.1691 30.4884 40.9752 29.3094 40.262 28.3886C39.5497 27.4689 38.3234 26.8118 36.7321 26.3449C33.5492 25.4112 28.8859 25.233 23.8839 25.2584C22.0146 25.2679 20.0981 25.3058 18.1931 25.3435C14.998 25.4068 11.8357 25.4694 8.98411 25.3961C6.70862 25.3376 4.63272 25.1926 2.89791 24.8926C1.16246 24.5925 -0.227754 24.1379 -1.13519 23.4628L-1.13545 23.4626L-8.19879 18.0063L-14.8047 12.177C-6.61998 16.3889 1.95851 16.7515 10.5197 17.1134C11.708 17.1636 12.8959 17.2138 14.0824 17.2743C23.8997 17.7748 33.6231 18.9782 42.6521 26.6992C44.8097 29.0938 45.8308 31.2711 46.0404 33.265C46.2501 35.259 45.6487 37.0741 44.5527 38.7448C42.4478 41.9537 38.524 44.6236 35.0385 46.9951C34.8918 47.095 34.7459 47.1942 34.601 47.293C32.8077 48.5148 31.1589 49.6588 29.9778 50.7574C28.7983 51.8546 28.0762 52.9149 28.1544 53.9698C28.2329 55.0264 29.1122 56.0605 31.0886 57.1099C33.0668 58.1603 36.1535 59.2312 40.6677 60.357C47.8964 62.1597 52.4856 60.8151 55.3973 57.8096C58.3064 54.8068 59.534 50.1529 60.0574 45.3528C60.435 41.89 60.4465 38.3459 60.4564 35.2854C60.4602 34.1033 60.4638 32.9933 60.4882 31.9881C60.5319 30.1822 60.6427 28.7166 60.9401 27.7741C61.0889 27.3026 61.2828 26.9674 61.5334 26.7843C61.7813 26.6032 62.0901 26.567 62.4803 26.7058L100.815 45.8624C68.6666 60.577 46.7172 66.9122 32.9682 68.2072C26.0887 68.8551 21.2665 68.2406 18.2473 66.7864C16.7382 66.0589 15.6807 65.1228 15.0409 64.0306C14.4011 62.9385 14.1776 61.688 14.3404 60.3296C14.6662 57.6113 16.4718 54.8136 19.0039 52.0609C21.5353 49.3089 24.7885 46.6062 28.0025 44.0776C28.9962 43.2957 29.9861 42.5305 30.9499 41.7856C33.1022 40.1219 35.1233 38.5597 36.7607 37.1411C37.946 36.1141 38.9317 35.1612 39.6213 34.2982Z" stroke="#001948" stroke-opacity="0.15" stroke-width="0.0642054"/>
</g>
<path d="M78.4219 60.6028V56.6477H78.9869V60.6028H78.4219ZM80.1708 60.6028V56.6477H80.6344L83.2501 59.8965H83.0074V56.6477H83.5724V60.6028H83.1089L80.4931 57.354H80.7358V60.6028H80.1708ZM85.9089 60.648C85.6071 60.648 85.3195 60.6028 85.044 60.5124C84.7692 60.4182 84.5528 60.2977 84.3943 60.1508L84.6036 59.7101C84.7545 59.8419 84.9464 59.9512 85.1801 60.0378C85.4132 60.1244 85.6565 60.1677 85.9089 60.1677C86.1387 60.1677 86.3249 60.1413 86.4681 60.0886C86.6113 60.0359 86.7166 59.9643 86.7846 59.8739C86.852 59.7797 86.8861 59.6743 86.8861 59.5575C86.8861 59.4219 86.8411 59.3127 86.7506 59.2298C86.6639 59.1469 86.549 59.0811 86.4058 59.0321C86.2665 58.9794 86.1124 58.9342 85.9429 58.8965C85.7734 58.8588 85.602 58.8155 85.4286 58.7665C85.2591 58.7138 85.1024 58.6479 84.9593 58.5688C84.8199 58.4897 84.7069 58.3842 84.6203 58.2524C84.5336 58.1168 84.4906 57.9435 84.4906 57.7326C84.4906 57.5292 84.5432 57.3427 84.6485 57.1732C84.7583 56.9999 84.924 56.8624 85.1461 56.7607C85.3721 56.6553 85.6585 56.6025 86.0045 56.6025C86.2344 56.6025 86.4623 56.6327 86.6883 56.6929C86.9143 56.7532 87.1101 56.8398 87.2758 56.9528L87.0896 57.4049C86.9201 57.2919 86.741 57.2109 86.5528 57.1619C86.3647 57.1092 86.1817 57.0828 86.0045 57.0828C85.7824 57.0828 85.6 57.111 85.4569 57.1675C85.3137 57.224 85.2084 57.2994 85.1403 57.3935C85.0761 57.4877 85.044 57.5932 85.044 57.71C85.044 57.8493 85.0877 57.9604 85.1744 58.0433C85.2649 58.1262 85.3798 58.1921 85.5191 58.2411C85.6623 58.2901 85.8183 58.3353 85.9878 58.3767C86.1573 58.4144 86.3268 58.4576 86.4963 58.5066C86.6697 58.5556 86.8257 58.6196 86.965 58.6987C87.1082 58.7778 87.2232 58.8833 87.3098 59.0151C87.3965 59.1469 87.4402 59.3164 87.4402 59.5236C87.4402 59.7232 87.3856 59.9097 87.2758 60.083C87.1667 60.2525 86.9971 60.39 86.7673 60.4954C86.5413 60.5971 86.2556 60.648 85.9089 60.648ZM88.2652 60.6028V56.6477H89.8081C90.1541 56.6477 90.4501 56.7024 90.6947 56.8116C90.94 56.9208 91.1281 57.079 91.2597 57.2862C91.392 57.4934 91.4575 57.7401 91.4575 58.0264C91.4575 58.3127 91.392 58.5593 91.2597 58.7665C91.1281 58.9699 90.94 59.1281 90.6947 59.2411C90.4501 59.3503 90.1541 59.405 89.8081 59.405H88.576L88.8302 59.1394V60.6028H88.2652ZM88.8302 59.1959L88.576 58.9134H89.7907C90.1522 58.9134 90.4257 58.8362 90.61 58.6818C90.7987 58.5274 90.8925 58.3089 90.8925 58.0264C90.8925 57.7439 90.7987 57.5254 90.61 57.371C90.4257 57.2165 90.1522 57.1393 89.7907 57.1393H88.576L88.8302 56.8568V59.1959ZM92.2877 60.6028V56.6477H92.8527V60.6028H92.2877ZM94.0366 60.6028V56.6477H95.5795C95.9255 56.6477 96.2215 56.7024 96.4662 56.8116C96.7114 56.9208 96.8995 57.079 97.0312 57.2862C97.1634 57.4934 97.2289 57.7401 97.2289 58.0264C97.2289 58.3127 97.1634 58.5593 97.0312 58.7665C96.8995 58.9699 96.7114 59.1263 96.4662 59.2355C96.2215 59.3447 95.9255 59.3993 95.5795 59.3993H94.3474L94.6016 59.1394V60.6028H94.0366ZM96.6812 60.6028L95.6751 59.1677H96.28L97.297 60.6028H96.6812ZM94.6016 59.1959L94.3474 58.9191H95.5621C95.9243 58.9191 96.1971 58.8418 96.3814 58.6874C96.5702 58.5292 96.6639 58.3089 96.6639 58.0264C96.6639 57.7439 96.5702 57.5254 96.3814 57.371C96.1971 57.2165 95.9243 57.1393 95.5621 57.1393H94.3474L94.6016 56.8568V59.1959ZM98.6562 58.3541H100.69V58.8343H98.6562V58.3541ZM98.7069 60.1112H101.012V60.6028H98.1419V56.6477H100.933V57.1393H98.7069V60.1112ZM115.583 60.6028V56.6477H116.148V60.6028H115.583ZM117.332 60.6028V56.6477H117.796L120.412 59.8965H120.169V56.6477H120.734V60.6028H120.27L117.655 57.354H117.897V60.6028H117.332ZM121.918 60.6028V56.6477H122.381L124.997 59.8965H124.754V56.6477H125.319V60.6028H124.856L122.239 57.354H122.483V60.6028H121.918ZM128.288 60.648C127.987 60.648 127.706 60.5971 127.447 60.4954C127.19 60.3937 126.968 60.2525 126.779 60.0717C126.591 59.8871 126.444 59.6724 126.339 59.4276C126.233 59.1828 126.18 58.9153 126.18 58.6253C126.18 58.3353 126.233 58.0678 126.339 57.823C126.444 57.5781 126.591 57.3653 126.779 57.1845C126.968 56.9999 127.19 56.8568 127.447 56.7551C127.702 56.6534 127.983 56.6025 128.288 56.6025C128.589 56.6025 128.866 56.6534 129.118 56.7551C129.375 56.853 129.597 56.9943 129.786 57.1788C129.978 57.3596 130.125 57.5725 130.226 57.8173C130.331 58.0621 130.385 58.3315 130.385 58.6253C130.385 58.9191 130.331 59.1884 130.226 59.4332C130.125 59.678 129.978 59.8927 129.786 60.0773C129.597 60.2581 129.375 60.3994 129.118 60.5011C128.866 60.599 128.589 60.648 128.288 60.648ZM128.288 60.1451C128.507 60.1451 128.708 60.1074 128.892 60.0321C129.081 59.9568 129.243 59.8513 129.378 59.7157C129.518 59.5763 129.625 59.4144 129.701 59.2298C129.78 59.0452 129.82 58.8438 129.82 58.6253C129.82 58.4068 129.78 58.2053 129.701 58.0207C129.625 57.8361 129.518 57.6761 129.378 57.5405C129.243 57.4011 129.081 57.2937 128.892 57.2184C128.708 57.1431 128.507 57.1054 128.288 57.1054C128.066 57.1054 127.861 57.1431 127.673 57.2184C127.488 57.2937 127.326 57.4011 127.187 57.5405C127.047 57.6761 126.938 57.8361 126.858 58.0207C126.783 58.2053 126.745 58.4068 126.745 58.6253C126.745 58.8438 126.783 59.0452 126.858 59.2298C126.938 59.4144 127.047 59.5763 127.187 59.7157C127.326 59.8513 127.488 59.9568 127.673 60.0321C127.861 60.1074 128.066 60.1451 128.288 60.1451ZM132.263 60.6028L130.522 56.6477H131.133L132.731 60.2977H132.381L133.991 56.6477H134.556L132.822 60.6028H132.263ZM134.334 60.6028L136.126 56.6477H136.685L138.482 60.6028H137.889L136.29 56.9641H136.516L134.917 60.6028H134.334ZM135.097 59.614L135.25 59.162H137.476L137.64 59.614H135.097ZM139.658 60.6028V57.1393H138.302V56.6477H141.574V57.1393H140.218V60.6028H139.658ZM142.704 58.3541H144.738V58.8343H142.704V58.3541ZM142.754 60.1112H145.059V60.6028H142.189V56.6477H144.98V57.1393H142.754V60.1112ZM161.662 58.3541H163.696V58.8343H161.662V58.3541ZM161.713 60.1112H164.018V60.6028H161.148V56.6477H163.939V57.1393H161.713V60.1112ZM164.933 60.6028V56.6477H165.396L168.012 59.8965H167.769V56.6477H168.334V60.6028H167.871L165.255 57.354H165.498V60.6028H164.933ZM171.304 60.648C170.998 60.648 170.718 60.599 170.462 60.5011C170.205 60.3994 169.983 60.2581 169.795 60.0773C169.607 59.8927 169.46 59.678 169.355 59.4332C169.249 59.1884 169.196 58.9191 169.196 58.6253C169.196 58.3315 169.249 58.0621 169.355 57.8173C169.46 57.5725 169.607 57.3596 169.795 57.1788C169.987 56.9943 170.211 56.853 170.467 56.7551C170.724 56.6534 171.006 56.6025 171.315 56.6025C171.628 56.6025 171.914 56.6534 172.174 56.7551C172.434 56.8568 172.654 57.0093 172.835 57.2127L172.485 57.5631C172.323 57.4049 172.146 57.29 171.954 57.2184C171.765 57.1431 171.56 57.1054 171.337 57.1054C171.111 57.1054 170.901 57.1431 170.705 57.2184C170.513 57.2937 170.345 57.3992 170.202 57.5348C170.063 57.6704 169.953 57.8324 169.874 58.0207C169.799 58.2053 169.761 58.4068 169.761 58.6253C169.761 58.84 169.799 59.0415 169.874 59.2298C169.953 59.4144 170.063 59.5763 170.202 59.7157C170.345 59.8513 170.513 59.9568 170.705 60.0321C170.897 60.1074 171.106 60.1451 171.332 60.1451C171.543 60.1451 171.744 60.1131 171.936 60.0491C172.132 59.9813 172.313 59.8701 172.479 59.7157L172.801 60.1451C172.605 60.3109 172.376 60.4371 172.112 60.5237C171.852 60.6066 171.583 60.648 171.304 60.648ZM172.259 60.0717V58.6027H172.801V60.1451L172.259 60.0717ZM173.882 60.6028V56.6477H174.447V60.6028H173.882ZM175.632 60.6028V56.6477H176.095L178.711 59.8965H178.468V56.6477H179.033V60.6028H178.57L175.954 57.354H176.197V60.6028H175.632ZM180.731 58.3541H182.765V58.8343H180.731V58.3541ZM180.782 60.1112H183.087V60.6028H180.217V56.6477H183.008V57.1393H180.782V60.1112ZM184.516 58.3541H186.55V58.8343H184.516V58.3541ZM184.567 60.1112H186.872V60.6028H184.002V56.6477H186.793V57.1393H184.567V60.1112ZM187.787 60.6028V56.6477H189.33C189.676 56.6477 189.972 56.7024 190.217 56.8116C190.462 56.9208 190.65 57.079 190.782 57.2862C190.914 57.4934 190.98 57.7401 190.98 58.0264C190.98 58.3127 190.914 58.5593 190.782 58.7665C190.65 58.9699 190.462 59.1263 190.217 59.2355C189.972 59.3447 189.676 59.3993 189.33 59.3993H188.098L188.352 59.1394V60.6028H187.787ZM190.431 60.6028L189.426 59.1677H190.03L191.047 60.6028H190.431ZM188.352 59.1959L188.098 58.9191H189.313C189.674 58.9191 189.947 58.8418 190.132 58.6874C190.32 58.5292 190.415 58.3089 190.415 58.0264C190.415 57.7439 190.32 57.5254 190.132 57.371C189.947 57.2165 189.674 57.1393 189.313 57.1393H188.098L188.352 56.8568V59.1959Z" fill="url(#paint10_linear_948_774)"/>
<path d="M107.43 56.0442H108.008V60.346H107.43V56.0442Z" fill="#FC6AFF"/>
<path d="M153.015 56.0442H152.438V60.346H153.015V56.0442Z" fill="#339DDC"/>
<path d="M79.7489 44.6621H85.6127V46.8545H79.7489V44.6621ZM79.9575 49.6732H86.5874V51.9352H77.1562V39.7554H86.3607V42.0174H79.9575V49.6732ZM88.1887 51.9352L93.4259 44.7143V46.7675L88.4153 39.7554H91.6166L95.0792 44.6447L93.7392 44.6621L97.1498 39.7554H100.212L95.2358 46.6457V44.6273L100.508 51.9352H97.2538L93.6699 46.7675H94.9572L91.4253 51.9352H88.1887ZM108.259 52.144C107.319 52.144 106.444 51.9932 105.632 51.6916C104.831 51.3784 104.135 50.9376 103.544 50.3692C102.952 49.8008 102.488 49.1338 102.152 48.3683C101.827 47.6027 101.665 46.7617 101.665 45.8453C101.665 44.9289 101.827 44.0879 102.152 43.3224C102.488 42.5568 102.952 41.8898 103.544 41.3214C104.147 40.753 104.849 40.318 105.649 40.0164C106.449 39.7032 107.325 39.5466 108.277 39.5466C109.332 39.5466 110.283 39.7322 111.13 40.1034C111.988 40.463 112.707 40.9966 113.288 41.7042L111.478 43.3746C111.061 42.899 110.596 42.5452 110.086 42.3132C109.575 42.0696 109.019 41.9478 108.416 41.9478C107.847 41.9478 107.325 42.0406 106.85 42.2262C106.374 42.4118 105.962 42.6786 105.614 43.0266C105.266 43.3746 104.994 43.7864 104.797 44.2619C104.611 44.7375 104.518 45.2653 104.518 45.8453C104.518 46.4253 104.611 46.9531 104.797 47.4287C104.994 47.9042 105.266 48.3161 105.614 48.6641C105.962 49.012 106.374 49.2788 106.85 49.4644C107.325 49.6501 107.847 49.7428 108.416 49.7428C109.019 49.7428 109.575 49.6268 110.086 49.3948C110.596 49.1512 111.061 48.7859 111.478 48.2987L113.288 49.969C112.707 50.6766 111.988 51.216 111.13 51.5872C110.283 51.9584 109.326 52.144 108.259 52.144ZM118.653 44.6621H124.517V46.8545H118.653V44.6621ZM118.862 49.6732H125.491V51.9352H116.061V39.7554H125.265V42.0174H118.862V49.6732ZM128.605 51.9352V39.7554H131.423V49.6384H137.531V51.9352H128.605ZM144.903 51.9352V50.1082L149.601 45.6713C149.972 45.3349 150.244 45.0333 150.418 44.7665C150.592 44.4998 150.709 44.2562 150.766 44.0357C150.836 43.8153 150.871 43.6124 150.871 43.4268C150.871 42.9396 150.703 42.5684 150.366 42.3132C150.042 42.0464 149.56 41.913 148.922 41.913C148.412 41.913 147.936 42.0116 147.496 42.2088C147.066 42.406 146.701 42.7134 146.399 43.131L144.346 41.8086C144.81 41.1126 145.46 40.5616 146.295 40.1556C147.13 39.7497 148.093 39.5466 149.183 39.5466C150.088 39.5466 150.877 39.6975 151.55 39.999C152.234 40.289 152.762 40.7008 153.133 41.2344C153.516 41.768 153.707 42.406 153.707 43.1484C153.707 43.5428 153.655 43.9371 153.55 44.3315C153.458 44.7143 153.261 45.1203 152.959 45.5495C152.669 45.9787 152.24 46.4601 151.672 46.9937L147.774 50.665L147.235 49.6384H154.108V51.9352H144.903ZM161.36 52.144C160.363 52.144 159.469 51.9004 158.681 51.4132C157.892 50.9144 157.271 50.1952 156.819 49.2556C156.366 48.3161 156.14 47.1793 156.14 45.8453C156.14 44.5113 156.366 43.3746 156.819 42.435C157.271 41.4954 157.892 40.782 158.681 40.2948C159.469 39.796 160.363 39.5466 161.36 39.5466C162.37 39.5466 163.263 39.796 164.04 40.2948C164.829 40.782 165.449 41.4954 165.902 42.435C166.354 43.3746 166.58 44.5113 166.58 45.8453C166.58 47.1793 166.354 48.3161 165.902 49.2556C165.449 50.1952 164.829 50.9144 164.04 51.4132C163.263 51.9004 162.37 52.144 161.36 52.144ZM161.36 49.7602C161.836 49.7602 162.248 49.6268 162.596 49.36C162.955 49.0933 163.234 48.6698 163.431 48.0899C163.64 47.5099 163.744 46.7617 163.744 45.8453C163.744 44.9289 163.64 44.1807 163.431 43.6008C163.234 43.0208 162.955 42.5974 162.596 42.3306C162.248 42.0638 161.836 41.9304 161.36 41.9304C160.896 41.9304 160.485 42.0638 160.125 42.3306C159.777 42.5974 159.498 43.0208 159.29 43.6008C159.093 44.1807 158.994 44.9289 158.994 45.8453C158.994 46.7617 159.093 47.5099 159.29 48.0899C159.498 48.6698 159.777 49.0933 160.125 49.36C160.485 49.6268 160.896 49.7602 161.36 49.7602ZM168.648 51.9352V50.1082L173.346 45.6713C173.717 45.3349 173.989 45.0333 174.163 44.7665C174.337 44.4998 174.453 44.2562 174.511 44.0357C174.581 43.8153 174.616 43.6124 174.616 43.4268C174.616 42.9396 174.447 42.5684 174.111 42.3132C173.786 42.0464 173.304 41.913 172.667 41.913C172.156 41.913 171.681 42.0116 171.24 42.2088C170.811 42.406 170.445 42.7134 170.144 43.131L168.09 41.8086C168.555 41.1126 169.204 40.5616 170.04 40.1556C170.874 39.7497 171.837 39.5466 172.928 39.5466C173.832 39.5466 174.621 39.6975 175.294 39.999C175.979 40.289 176.506 40.7008 176.877 41.2344C177.26 41.768 177.451 42.406 177.451 43.1484C177.451 43.5428 177.399 43.9371 177.295 44.3315C177.202 44.7143 177.005 45.1203 176.703 45.5495C176.413 45.9787 175.984 46.4601 175.416 46.9937L171.518 50.665L170.979 49.6384H177.852V51.9352H168.648ZM179.576 49.3774V47.4809L185.318 39.7554H188.276L182.655 47.4809L181.281 47.0807H190.868V49.3774H179.576ZM186.135 51.9352V49.3774L186.223 47.0807V44.8013H188.885V51.9352H186.135Z" fill="url(#paint11_linear_948_774)"/>
</g>
<defs>
<linearGradient id="paint0_linear_948_774" x1="62.7093" y1="78.0776" x2="7.81434" y2="25.5676" gradientUnits="userSpaceOnUse">
<stop stop-color="#339DDC"/>
<stop offset="0.332112" stop-color="#2C1B77"/>
<stop offset="0.407749"/>
<stop offset="0.482841" stop-color="#2C1B77"/>
<stop offset="1" stop-color="#AD59AE"/>
</linearGradient>
<linearGradient id="paint1_linear_948_774" x1="77.4784" y1="73.666" x2="12.3377" y2="9.53268" gradientUnits="userSpaceOnUse">
<stop stop-color="#339DDC"/>
<stop offset="0.341434" stop-color="#2C1B77"/>
<stop offset="0.399755"/>
<stop offset="0.473739" stop-color="#2C1B77"/>
<stop offset="1" stop-color="#FD95FF"/>
</linearGradient>
<linearGradient id="paint2_linear_948_774" x1="8.19837" y1="100.297" x2="67.4122" y2="20.024" gradientUnits="userSpaceOnUse">
<stop stop-color="#26A8F5"/>
<stop offset="0.984416" stop-color="#AD59AE"/>
</linearGradient>
<linearGradient id="paint3_linear_948_774" x1="44.9386" y1="22.7208" x2="53.0386" y2="32.3633" gradientUnits="userSpaceOnUse">
<stop stop-color="#FD95FF"/>
<stop offset="1" stop-color="#339DDC"/>
</linearGradient>
<linearGradient id="paint4_linear_948_774" x1="76.9525" y1="54.1834" x2="2.19715" y2="54.1834" gradientUnits="userSpaceOnUse">
<stop stop-color="#C630C9"/>
<stop offset="1" stop-color="#339DDC"/>
</linearGradient>
<linearGradient id="paint5_linear_948_774" x1="72.3279" y1="43.0951" x2="11.4996" y2="43.0951" gradientUnits="userSpaceOnUse">
<stop stop-color="#F16BF3"/>
<stop offset="0.38" stop-color="#002873"/>
<stop offset="1" stop-color="#3696CF"/>
</linearGradient>
<linearGradient id="paint6_linear_948_774" x1="72.3281" y1="43.095" x2="11.4997" y2="43.095" gradientUnits="userSpaceOnUse">
<stop stop-color="#F16BF3"/>
<stop offset="0.38" stop-color="#002873"/>
<stop offset="1" stop-color="#3696CF"/>
</linearGradient>
<linearGradient id="paint7_linear_948_774" x1="71.3421" y1="75.5157" x2="13.3348" y2="12.3726" gradientUnits="userSpaceOnUse">
<stop stop-color="#3C61A7"/>
<stop offset="0.414057" stop-color="#2C1B77"/>
<stop offset="1" stop-color="#AE26B0"/>
</linearGradient>
<linearGradient id="paint8_linear_948_774" x1="71.345" y1="75.5158" x2="13.3377" y2="12.3726" gradientUnits="userSpaceOnUse">
<stop stop-color="#3C61A7"/>
<stop offset="0.414057" stop-color="#2C1B77"/>
<stop offset="1" stop-color="#AE26B0"/>
</linearGradient>
<linearGradient id="paint9_linear_948_774" x1="49.438" y1="21.196" x2="49.438" y2="32.3845" gradientUnits="userSpaceOnUse">
<stop stop-color="#F16BF3"/>
<stop offset="1" stop-color="#339DDC"/>
</linearGradient>
<linearGradient id="paint10_linear_948_774" x1="77.8286" y1="58.5803" x2="191.344" y2="58.5803" gradientUnits="userSpaceOnUse">
<stop stop-color="#AD59AE"/>
<stop offset="1" stop-color="#26A8F5"/>
</linearGradient>
<linearGradient id="paint11_linear_948_774" x1="75.7123" y1="45.7073" x2="191.089" y2="45.7073" gradientUnits="userSpaceOnUse">
<stop stop-color="#AD59AE"/>
<stop offset="1" stop-color="#26A8F5"/>
</linearGradient>
<clipPath id="clip0_948_774">
<rect width="190.69" height="96.7575" fill="white" transform="translate(0.65625 0.121338)"/>
</clipPath>
</defs>
</svg>
